<svg xmlns="http://www.w3.org/2000/svg" viewBox="0 0 414.58 108.59"><defs><style>.cls-1{font-size:97.66px;font-family:FuturaStd-Heavy, Futura Std;font-weight:800;}.cls-1,.cls-2{fill:#231f20;}.cls-3{fill:#339dd7;}.cls-4,.cls-5{fill:#fff;}.cls-4{stroke:#231f20;stroke-miterlimit:10;}</style></defs><g id="Layer_2" data-name="Layer 2"><g id="Layer_1-2" data-name="Layer 1"><text class="cls-1" transform="translate(0 82.81)">Play</text><text class="cls-1" transform="translate(202.72 82.81)">B</text><path class="cls-2" d="M355.88,9.18h17L384.59,32,395.34,9.18h17L391.92,43.85l22.66,39h-13.7L386,55.86,369,82.81h-16.8l23.54-39Z"/><rect class="cls-3" x="280.43" y="22.62" width="45.96" height="45"/><rect class="cls-4" x="262.39" y="9.18" width="18.04" height="73.63"/><rect class="cls-4" x="326.39" y="9.18" width="18.04" height="73.63"/><polygon class="cls-5" points="296.61 35.15 305.24 40.14 313.87 45.12 305.24 50.1 296.61 55.09 296.61 45.12 296.61 35.15"/><rect class="cls-2" x="268.56" y="13.85" width="5.45" height="5.45"/><rect class="cls-2" x="268.56" y="33.47" width="5.45" height="5.45"/><rect class="cls-2" x="268.56" y="53.08" width="5.45" height="5.45"/><rect class="cls-2" x="268.56" y="72.69" width="5.45" height="5.45"/><rect class="cls-2" x="332.81" y="13.85" width="5.45" height="5.45"/><rect class="cls-2" x="332.81" y="33.47" width="5.45" height="5.45"/><rect class="cls-2" x="332.81" y="53.08" width="5.45" height="5.45"/><rect class="cls-2" x="332.81" y="72.69" width="5.45" height="5.45"/></g></g></svg>